<svg id="图层_1" data-name="图层 1" xmlns="http://www.w3.org/2000/svg" viewBox="0 0 339.85 276.24"><defs><style>.cls-1{fill:#565360;}.cls-1,.cls-13,.cls-3{stroke:#010102;}.cls-1,.cls-11,.cls-13,.cls-14,.cls-3,.cls-7{stroke-miterlimit:10;}.cls-1,.cls-12,.cls-13,.cls-3,.cls-7,.cls-8{stroke-width:0.75px;}.cls-2{fill:#ed4014;}.cls-11,.cls-14,.cls-2,.cls-4,.cls-7,.cls-9{stroke:#000;}.cls-12,.cls-14,.cls-2,.cls-4,.cls-8,.cls-9{stroke-linecap:round;}.cls-12,.cls-2,.cls-4,.cls-8,.cls-9{stroke-linejoin:round;}.cls-3{fill:#3e3b4c;}.cls-11,.cls-4,.cls-8{fill:#fff;}.cls-4{stroke-width:0.76px;}.cls-5,.cls-7{fill:#ffc3bc;}.cls-6{fill:#010102;}.cls-12,.cls-8{stroke:#101010;}.cls-9{fill:#ffd0c7;}.cls-10{fill:#101010;}.cls-11{stroke-width:0.5px;}.cls-12,.cls-13,.cls-14{fill:none;}</style></defs><title>猫猫···</title><path class="cls-1" d="M205.17,390.42s3.85-12.43,7.71-26.1S224.44,317,224.44,317l125.78,1.75s7.36,30.14,8.06,37.84,11.12,32.5,11.12,32.5" transform="translate(-119.23 -114.29)"/><path class="cls-2" d="M255.4,298.8c-.56,3.11-2.31,11.45-5.68,16a1.5,1.5,0,0,0,1.52,2.34l.12,0a1.5,1.5,0,0,1,1.53,2.34,11.18,11.18,0,0,1-3.35,3.11c-.83.48,3.37-.39,4,.31,3.35,3.41,11.49,11,15.42,8.79a1.28,1.28,0,0,1,.38-.16c1-.24,1.13.68,1.76.09a1.48,1.48,0,0,1,1.25-.48c2.23.38,2,2.63,4.34,9,0,.07,1.45,1.68,1.49,1.75.3.53,3.72.85,5.47,2.14.84.61.08,2.29.38,1.3.75-2.54,8.58-8.2,7.55-5.92-1.4,3.13,4.16-6.15,10.29-5s3.42-6,2.89-5.78,8.47-3.22,13.23-7.48a1.5,1.5,0,0,1,2,0l5.44-1.43a1.5,1.5,0,0,0,2.49-1.29c-.4-3.64-.17-1.32-1.61-.83-2.23.77,4.06,14.94,13.23-2.87.35-.7,1.18,5.65.52,5.23a15.16,15.16,0,0,1-5-4.93,1.57,1.57,0,0,1,.49-2,9.49,9.49,0,0,0,2.51-3.17,1.51,1.51,0,0,0-.6-2.07c-2.45-1.3-5.33-5.41-10.71-11.37-.29-.32-3.33.28-3.76.28l-66.22.95A1.5,1.5,0,0,0,255.4,298.8Z" transform="translate(-119.23 -114.29)"/><path class="cls-3" d="M239,319.82s31.09,11.22,34.25,22.52,11,47.3,11,47.3h11.65V385s-1.75-10.86-2.1-13-6.83-12.26-6.48-23.83-5.43-14.27-5.43-14.27a101.76,101.76,0,0,0-16-7.31,142.82,142.82,0,0,0-25.17-6.75q-3-.51-6.1-.92c-28.64-3.68-68.06-26.54-68.06-26.54,3.68-10.51,28.91-37.84,28.91-37.84L255,294.38s1.84,15,7,19.84l4.79,3.48,2.7,2.23,3.61,3.35,5.06,5.65,2.43,3.62L254.93,323" transform="translate(-119.23 -114.29)"/><path class="cls-2" d="M289.17,312.22s-8.21-4.14-10.31-4.32-1.17-.54-1.17-.54c-3.33-2.52-18.59-7.57-18.59-7.57l3.7-.8c-1.31-1.76-11.05,1.66-11.05,1.66-16.82-.67-50.93-10.65-47.43-10.39a30.24,30.24,0,0,0,8.28-.95c-12.81,0-18.53-8.64-18.53-8.64,6.7,4.46,16,4.73,16,4.73-18.13-3.24-21.55-13.77-21.55-13.77,21,3.24,14.72-1.35,14.72-1.35-25.75-3-33.63-25.65-33.63-25.65s7.35,9.45,27.85-1.08,19.44-30.51,22.33-33.48,10.52-5.4,10.52-5.4,61-29.69,116.28,0c0,0,7.62,2.43,10.51,5.4s1.84,23,22.34,33.48,27.85,1.08,27.85,1.08-7.88,22.68-33.63,25.65c0,0-6.31,4.59,14.71,1.35,0,0-3.41,10.53-21.55,13.77,0,0,9.33-.27,16-4.73,0,0-5.38,8.51-18.52,8.64,0,0,4.86,1.76,8.28.95S342,300,325.2,300.65c0,0-11,.63-12.29,2.39l5.68-2.88S309,305,305.64,307.54c0,0-5.44.18-7.55.36a71.42,71.42,0,0,0-7.35,1.53Z" transform="translate(-119.23 -114.29)"/><path class="cls-4" d="M314.76,219.88s27.33,11.7,36.09,28.62,19.44,15.3,19.44,15.3-1.05,11-17,12.6a19.15,19.15,0,0,0,11.74.36s-9.64,9.54-19.27,9.54c0,0,5.25,1.62,8.93,1.26,0,0-8.5,7.92-17.17,9.54,0,0,7.19,0,11-1.8a23.67,23.67,0,0,1-10.07,5.22,54.72,54.72,0,0,1-11.61,1.39s-9,1.58-10,3.51l2.76-3.42L305,311.68s-4.23-2.86-4.95-2.59a32.57,32.57,0,0,0-9.71,7.09h0a32.51,32.51,0,0,0-9.76-7.09c-.73-.27-4.95,2.59-4.95,2.59l-14.7-10,2.76,3.42c-.94-1.63-9.92-3.21-9.92-3.21a54.65,54.65,0,0,1-11.6-1.39A23.75,23.75,0,0,1,232,295.3c3.77,1.8,11,1.8,11,1.8-8.67-1.62-17.17-9.54-17.17-9.54,3.68.36,8.94-1.26,8.94-1.26-9.64,0-19.27-9.54-19.27-9.54a19.16,19.16,0,0,0,11.74-.36c-15.95-1.62-17-12.6-17-12.6s10.69,1.62,19.45-15.3,36.09-28.62,36.09-28.62l19-5.94Z" transform="translate(-119.23 -114.29)"/><path d="M326.16,271.15a91.47,91.47,0,0,1,11.44-4.39,93.43,93.43,0,0,1,11.93-2.9,55.53,55.53,0,0,1,12.29-.71,31.31,31.31,0,0,1,6.08,1,19.06,19.06,0,0,1,5.56,2.58,20.59,20.59,0,0,0-5.68-2.1,31.08,31.08,0,0,0-6-.76,59.73,59.73,0,0,0-12.08.94,108.37,108.37,0,0,0-11.89,2.64q-2.94.79-5.85,1.73C330,269.81,328.09,270.47,326.16,271.15Z" transform="translate(-119.23 -114.29)"/><path d="M327.91,276.23a81.92,81.92,0,0,1,22.55-1.2,46.49,46.49,0,0,1,11.1,2.38,26.63,26.63,0,0,1,5.1,2.53,16.73,16.73,0,0,1,4.17,3.83,18.21,18.21,0,0,0-4.42-3.41,26.25,26.25,0,0,0-5.1-2.22,50.4,50.4,0,0,0-5.41-1.37c-1.83-.34-3.68-.58-5.54-.75a93.05,93.05,0,0,0-11.21-.41c-1.87,0-3.74.1-5.62.21S329.79,276.06,327.91,276.23Z" transform="translate(-119.23 -114.29)"/><path class="cls-1" d="M363.88,250.63s10.51,2.89,15,9.19,12.35,18.92,22.07,23.13-20.75,24.44-36.52,30.48-64.91,22.86-77,30.75l-1.84-6.05s5.78-15.5,15.5-20.23,38.1-28.64,43.1-41S363.88,250.63,363.88,250.63Z" transform="translate(-119.23 -114.29)"/><path class="cls-1" d="M287.55,250h6.8l14.72-30.84,40.86-13.22,8,4.2c5.12,23.78,13.92,27.07,13.92,27.07a66,66,0,0,1,2.89-7.1c2.37-5.25-.52-14.71-.52-14.71C364.78,145.46,298,141,298,141H279.21s-66.74,4.47-76.2,74.37c0,0-2.89,9.46-.53,14.71a63.05,63.05,0,0,1,2.89,7.1s8.81-3.29,13.93-27.07l8-4.2,40.87,13.22L282.89,250h4.66Z" transform="translate(-119.23 -114.29)"/><polygon class="cls-3" points="168.95 25.79 173.94 25.79 190.23 104.72 175.52 135.67 169.71 135.67 169.47 135.67 163.66 135.67 148.95 104.72 165.24 25.79 170.23 25.79 168.95 25.79"/><path d="M289.69,269c.13,1.46.23,2.92.29,4.38a.17.17,0,0,1,0,.07,7.76,7.76,0,0,1-3.62,4.57,10.92,10.92,0,0,1-5.69,1.37,11.53,11.53,0,0,1-5.6-1.53,12.29,12.29,0,0,1-4.2-3.87,15.64,15.64,0,0,0,4.51,3.27,12.54,12.54,0,0,0,5.3,1.16,10.88,10.88,0,0,0,5.22-1.22,7.6,7.6,0,0,0,3.53-3.9v.08C289.47,272,289.57,270.5,289.69,269Z" transform="translate(-119.23 -114.29)"/><path d="M289.86,269c.13,1.46.23,2.92.29,4.38v-.08a7.6,7.6,0,0,0,3.53,3.9,10.84,10.84,0,0,0,5.21,1.22,12.54,12.54,0,0,0,5.3-1.16,15.5,15.5,0,0,0,4.51-3.27,12.26,12.26,0,0,1-4.19,3.87,11.57,11.57,0,0,1-5.61,1.53,10.94,10.94,0,0,1-5.69-1.37,7.79,7.79,0,0,1-3.62-4.57s0-.05,0-.07C289.63,272,289.74,270.5,289.86,269Z" transform="translate(-119.23 -114.29)"/><path class="cls-5" d="M289.72,269a6.06,6.06,0,0,1-4-1.42,11.83,11.83,0,0,0-2.67-2c-1.62-1-2.69-1.61-2.53-3.84.05-.8,3.05-1.64,8.67-1.68h.44c5.63,0,8.63.88,8.68,1.68.16,2.23-.91,2.87-2.53,3.84a11.83,11.83,0,0,0-2.67,2,5.06,5.06,0,0,1-3.37,1.42Z" transform="translate(-119.23 -114.29)"/><path class="cls-6" d="M289.67,260.58c5.06,0,7.81.75,8.19,1.26.11,1.89-.75,2.4-2.3,3.33a12.52,12.52,0,0,0-2.77,2.08,4.57,4.57,0,0,1-3,1.27h-.07a5.55,5.55,0,0,1-3.6-1.27,12.56,12.56,0,0,0-2.78-2.08c-1.55-.93-2.41-1.44-2.3-3.33.39-.51,3.13-1.22,8.18-1.26h.44m-.1-1h0Zm-.24,0h0Zm.34,0h-.44c-2.16,0-9,.22-9.17,2.14-.26,3.86,2.95,3.71,5.34,6.22a6.42,6.42,0,0,0,4.3,1.58h.1a5.46,5.46,0,0,0,3.71-1.58c2.39-2.51,5.61-2.36,5.34-6.22-.13-1.92-7-2.13-9.18-2.14Zm.55,9.94h0Zm-.52,0h0Z" transform="translate(-119.23 -114.29)"/><ellipse class="cls-2" cx="319.15" cy="225.23" rx="8.06" ry="3.85" transform="translate(-151.55 -59.51) rotate(-9.34)"/><ellipse class="cls-2" cx="258.15" cy="225.23" rx="3.85" ry="8.06" transform="translate(-125.21 329.11) rotate(-80.66)"/><path class="cls-1" d="M120,115.42s66.57,56.76,110.37,49.05l-17.62,43.2a2.17,2.17,0,0,1-3.14,1C197,201.1,134.14,161.09,120,115.42Z" transform="translate(-119.23 -114.29)"/><path class="cls-1" d="M458.34,115.42S391.77,172.18,348,164.47l17.62,43.2a2.17,2.17,0,0,0,3.14,1C381.29,201.1,444.16,161.09,458.34,115.42Z" transform="translate(-119.23 -114.29)"/><path class="cls-2" d="M318.31,173.77c3.73-5.6,18.08-26.53,28.52-32.43,0,0,17.52,38.37,15.24,62.72,0,0-.35,5.78-5.43,1.58s-8.93-15.6-24.35-20.5c-12.84-4.09-15.11-4.89-15.1-7.88A6.32,6.32,0,0,1,318.31,173.77Z" transform="translate(-119.23 -114.29)"/><path class="cls-7" d="M338.73,186.45s-1.58-.65-1.58-3.54-.39-20.24,9.59-35.61c0,0,12.88,27.2,13.27,52.82a29.58,29.58,0,0,1-.13,4.6C359.62,206.69,347.14,187.77,338.73,186.45Z" transform="translate(-119.23 -114.29)"/><path class="cls-2" d="M254.15,173.77c-3.72-5.6-18.08-26.53-28.51-32.43,0,0-17.52,38.37-15.25,62.72,0,0,.36,5.78,5.44,1.58s8.93-15.6,24.35-20.5c12.84-4.09,15.11-4.89,15.1-7.88A6.33,6.33,0,0,0,254.15,173.77Z" transform="translate(-119.23 -114.29)"/><path class="cls-7" d="M233.74,186.45s1.57-.65,1.57-3.54.4-20.24-9.59-35.61c0,0-12.87,27.2-13.27,52.82a31,31,0,0,0,.13,4.6C212.85,206.69,225.33,187.77,233.74,186.45Z" transform="translate(-119.23 -114.29)"/><circle class="cls-1" cx="170.41" cy="111.23" r="6.92"/><circle class="cls-3" cx="198.87" cy="86.24" r="5.43"/><circle class="cls-3" cx="138.87" cy="86.24" r="5.43"/><path d="M251.46,271.15c-1.93-.68-3.85-1.34-5.8-1.93s-3.89-1.2-5.85-1.73a108.37,108.37,0,0,0-11.89-2.64,59.73,59.73,0,0,0-12.08-.94,31.18,31.18,0,0,0-6,.76,20.59,20.59,0,0,0-5.68,2.1,19.06,19.06,0,0,1,5.56-2.58,31.31,31.31,0,0,1,6.08-1,55.53,55.53,0,0,1,12.29.71,93.43,93.43,0,0,1,11.93,2.9A91.47,91.47,0,0,1,251.46,271.15Z" transform="translate(-119.23 -114.29)"/><path d="M249.71,276.23c-1.88-.17-3.75-.33-5.62-.41s-3.75-.19-5.62-.21a93.05,93.05,0,0,0-11.21.41c-1.86.17-3.71.41-5.54.75a50.4,50.4,0,0,0-5.41,1.37,26.25,26.25,0,0,0-5.1,2.22,18.21,18.21,0,0,0-4.42,3.41,16.73,16.73,0,0,1,4.17-3.83,26.63,26.63,0,0,1,5.1-2.53,46.49,46.49,0,0,1,11.1-2.38,81.92,81.92,0,0,1,22.55,1.2Z" transform="translate(-119.23 -114.29)"/><path class="cls-8" d="M275.09,254.73a.82.82,0,0,1-1.08,1c-.88-.38-1.88-.65-2.41-.23-.89.71-17.58,11.17-28.59,2.85a16.53,16.53,0,0,1-6.08-10.25c-.6-3.2-1-7.68.29-11.37a.76.76,0,0,1,.51-.49c2.57-.81,17.77-5.15,26.25,2.05A38.06,38.06,0,0,1,275.09,254.73Z" transform="translate(-119.23 -114.29)"/><ellipse class="cls-9" cx="134.94" cy="133.56" rx="16.03" ry="13.66"/><path class="cls-2" d="M269.76,250.74s-5,3.51-11.12-1.66-11.74,1.14-14.89,1.66-5.34-.26-5.61-2.89,1.84-8.54,8.15-12.41,18.2,3.15,18.2,3.15l5.84,7.23Z" transform="translate(-119.23 -114.29)"/><path class="cls-10" d="M254.44,241A12.79,12.79,0,0,1,256,245a18.11,18.11,0,0,1,0,7.89,12.58,12.58,0,0,1-1.57,3.94,12.38,12.38,0,0,1-1.58-3.94,17.66,17.66,0,0,1-.42-3.94,18.31,18.31,0,0,1,.43-3.95A12.58,12.58,0,0,1,254.44,241Z" transform="translate(-119.23 -114.29)"/><path class="cls-10" d="M238.49,230c1.14-.13,2.29-.21,3.45-.29l1.73-.09c.58,0,1.16,0,1.74.08,1.15.09,2.32.14,3.48.28s2.3.47,3.45.7a11.28,11.28,0,0,1,1.7.47l1.68.58a16.64,16.64,0,0,1,1.66.63l1.6.77c.54.25,1.07.53,1.59.8s1,.65,1.5,1l1.49,1c.49.33.93.74,1.4,1.11a32.72,32.72,0,0,1,8.64,11.16,34.26,34.26,0,0,1,2.3,6.63c.13.57.23,1.15.32,1.73a.74.74,0,0,1,0,.35.75.75,0,0,1-.2.37.76.76,0,0,1-.76.19.81.81,0,0,1-.3-.18l-.06-.08-.14-.14a7.7,7.7,0,0,0-.59-.56,4.36,4.36,0,0,0-1.35-.84,1.84,1.84,0,0,0-1.58.12,2,2,0,0,1,1.67-.56,4.74,4.74,0,0,1,1.73.59,5.52,5.52,0,0,1,.77.48l.18.13.09.07s-.06-.06-.11-.07a.36.36,0,0,0-.37.08.29.29,0,0,0-.1.19c0,.05,0,.19,0,.13-.19-.52-.38-1-.6-1.56a46.69,46.69,0,0,0-3-6,39.07,39.07,0,0,0-8.48-9.95,38.06,38.06,0,0,0-11.38-6.4c-1-.33-2.12-.65-3.17-1s-2.18-.49-3.28-.75c-.55-.12-1.1-.27-1.65-.38l-1.68-.23C240.77,230.37,239.64,230.2,238.49,230Z" transform="translate(-119.23 -114.29)"/><path class="cls-10" d="M272.44,248.91a42.63,42.63,0,0,0-8.5-8.66,22.14,22.14,0,0,0-5-2.86,16.52,16.52,0,0,0-5.34-1.34c-3.72-.32-7.68.44-11.81,1a33.93,33.93,0,0,1-6.42.41,11.52,11.52,0,0,1-3.27-.66,6.26,6.26,0,0,1-2.66-1.86,8.81,8.81,0,0,0,5.83.56,55.08,55.08,0,0,0,5.86-1.53c4-1.14,8.2-2.32,12.8-1.95a18.49,18.49,0,0,1,3.42.62,14.15,14.15,0,0,1,1.62.59,9.48,9.48,0,0,1,1.56.69,20.83,20.83,0,0,1,5.43,3.91A24.62,24.62,0,0,1,272.44,248.91Z" transform="translate(-119.23 -114.29)"/><path class="cls-10" d="M270.1,246.18s2.8,6.14,2.53,9l2.47,1Z" transform="translate(-119.23 -114.29)"/><ellipse class="cls-11" cx="246.57" cy="251.88" rx="3.97" ry="4.96" transform="translate(-221.43 86.6) rotate(-37.29)"/><ellipse class="cls-9" cx="203.46" cy="133.56" rx="16.03" ry="13.66"/><path class="cls-2" d="M307.1,250.74s5,3.51,11.13-1.66,11.73,1.14,14.89,1.66,5.34-.26,5.6-2.89-1.84-8.54-8.14-12.41-18.2,3.15-18.2,3.15l-5.85,7.23Z" transform="translate(-119.23 -114.29)"/><ellipse class="cls-11" cx="330.29" cy="254.69" rx="4.96" ry="3.97" transform="translate(-191.67 248.86) rotate(-52.71)"/><path class="cls-10" d="M338.37,230c-1.14.21-2.27.38-3.39.54l-1.68.23c-.56.11-1.11.26-1.65.38-1.1.26-2.2.46-3.28.75s-2.12.68-3.17,1a37.94,37.94,0,0,0-11.38,6.4,38.87,38.87,0,0,0-8.48,9.95,45.41,45.41,0,0,0-3,6c-.23.51-.42,1-.61,1.56,0,.06,0-.08,0-.13a.43.43,0,0,0-.1-.19.36.36,0,0,0-.37-.08.31.31,0,0,0-.12.07l.09-.07.19-.13a5.52,5.52,0,0,1,.77-.48,4.74,4.74,0,0,1,1.73-.59,2,2,0,0,1,1.66.56,1.82,1.82,0,0,0-1.57-.12,4.14,4.14,0,0,0-1.35.84,6.21,6.21,0,0,0-.59.56l-.14.14-.07.08a.67.67,0,0,1-.3.18.75.75,0,0,1-.95-.56,1,1,0,0,1,0-.35c.1-.58.2-1.16.33-1.73a34.26,34.26,0,0,1,2.3-6.63A32.72,32.72,0,0,1,311.91,237c.46-.37.9-.78,1.39-1.11l1.5-1c.5-.32,1-.66,1.49-1s1.06-.55,1.6-.8l1.6-.77a16.64,16.64,0,0,1,1.66-.63l1.67-.58a11.08,11.08,0,0,1,1.71-.47c1.15-.23,2.3-.49,3.44-.7s2.33-.19,3.49-.28c.58,0,1.16-.08,1.73-.08l1.74.09C336.09,229.78,337.23,229.86,338.37,230Z" transform="translate(-119.23 -114.29)"/><path class="cls-10" d="M304.43,248.91a24.62,24.62,0,0,1,6.45-11,20.51,20.51,0,0,1,5.43-3.91,9.48,9.48,0,0,1,1.56-.69,14.15,14.15,0,0,1,1.62-.59,18.24,18.24,0,0,1,3.41-.62c4.61-.37,8.86.81,12.81,1.95a54.46,54.46,0,0,0,5.86,1.53,8.78,8.78,0,0,0,5.82-.56,6.2,6.2,0,0,1-2.66,1.86,11.39,11.39,0,0,1-3.26.66,33.87,33.87,0,0,1-6.42-.41c-4.13-.6-8.09-1.36-11.81-1a16.57,16.57,0,0,0-5.35,1.34,22.3,22.3,0,0,0-5,2.86A42.63,42.63,0,0,0,304.43,248.91Z" transform="translate(-119.23 -114.29)"/><path class="cls-12" d="M301.78,254.73a.81.81,0,0,0,1.08,1c.88-.38,1.88-.65,2.4-.23.9.71,17.58,11.17,28.6,2.85a16.53,16.53,0,0,0,6.08-10.25c.59-3.2,1-7.68-.29-11.37a.78.78,0,0,0-.51-.49c-2.58-.81-17.78-5.15-26.26,2.05A38,38,0,0,0,301.78,254.73Z" transform="translate(-119.23 -114.29)"/><path class="cls-10" d="M306.76,246.18s-2.79,6.14-2.53,9l-2.46,1Z" transform="translate(-119.23 -114.29)"/><path class="cls-10" d="M322.43,241A12.58,12.58,0,0,1,324,245a18.31,18.31,0,0,1,.43,3.95,17.68,17.68,0,0,1-.43,3.94,12.35,12.35,0,0,1-1.57,3.94,12.58,12.58,0,0,1-1.57-3.94,17.68,17.68,0,0,1-.43-3.94,18.31,18.31,0,0,1,.43-3.95A12.58,12.58,0,0,1,322.43,241Z" transform="translate(-119.23 -114.29)"/><path class="cls-13" d="M199.91,162.1s.35,24.88-9.11,34.34" transform="translate(-119.23 -114.29)"/><path class="cls-13" d="M182.74,155.45s3.16,19.27-6.65,30.13" transform="translate(-119.23 -114.29)"/><path class="cls-13" d="M378.09,162.1s-.35,24.88,9.11,34.34" transform="translate(-119.23 -114.29)"/><path class="cls-13" d="M395.26,155.45s-3.16,19.27,6.65,30.13" transform="translate(-119.23 -114.29)"/><path class="cls-14" d="M281.9,333.93S273,320.66,265.61,317s-13.14-11.58-13.14-11.58" transform="translate(-119.23 -114.29)"/><path class="cls-3" d="M373.08,255.09s-23.91,41.26-33.63,47.3-39.68,31-45.46,38.37l-6.77,3.35-1.12-4.53-.62-1.58,2.56-5.19,4-6.8,2.47-2.89,3.51-3.25,2.53-1.68,1.84-.92,2.27-1.38,4.92-3.51,5.92-4.4,5.65-4.76,5.15-4.73,3.78-3.42,4-4.24,3.05-3.35,4.27-5.45,1.15-1.87,1.94-3.94,1.08-2.63,3.65-5.75.33-.53s12-15.57,14.35-16.68C363.88,250.63,372.29,253.39,373.08,255.09Z" transform="translate(-119.23 -114.29)"/></svg>