<svg xmlns="http://www.w3.org/2000/svg" xmlns:xlink="http://www.w3.org/1999/xlink" width="673.004761" height="452.421143" viewBox="0 0 673.005 452.421"><path d="M27 0L101.56 0C116.464 0 128.56 12.096 128.56 27L128.56 27C128.56 41.904 116.464 54 101.56 54L27 54C12.096 54 0 41.904 0 27L0 27C0 12.096 12.096 0 27 0Z" fill="#FDFDFF" fill-opacity="1.000000" transform="matrix(1 0 0 1 18.2106 284.336)"/><path d="M27 0L101.56 0C116.464 0 128.56 12.096 128.56 27L128.56 27C128.56 41.904 116.464 54 101.56 54L27 54C12.096 54 0 41.904 0 27L0 27C0 12.096 12.096 0 27 0Z" fill="none" stroke="#9D62F5" stroke-opacity="1.000000" stroke-width="3" stroke-dasharray="0 0" transform="matrix(1 0 0 1 18.2106 284.336)"/><path d="M27.8408 34.6875L29.6621 34.6875L29.6621 35L29.3496 35L29.3496 26.9897L29.4411 26.8982Q31.1928 25.1465 32.6406 25.1465Q35.0137 25.1465 35.0137 28.3594L35.0137 35L34.7012 35L34.7012 34.6875L36.5176 34.6875L36.5176 35L36.2051 35L36.2051 28.1201Q36.2051 24.1748 33.2021 24.1748Q31.5584 24.1748 29.7784 25.9213L29.6873 26.0107L29.2191 26.0107L29.029 24.1728L29.3398 24.1406L29.3398 24.4531L27.8408 24.4531L27.8408 24.1406L28.1533 24.1406L28.1533 35L27.8408 35L27.8408 34.6875ZM27.5283 35.3125L27.5283 23.8281L29.6217 23.8281L29.8118 25.6661L29.501 25.6982L29.501 25.3857L29.5596 25.3857L29.5596 25.6982L29.3407 25.4752Q31.3029 23.5498 33.2021 23.5498Q36.8301 23.5498 36.8301 28.1201L36.8301 35.3125L34.3887 35.3125L34.3887 28.3594Q34.3887 25.7715 32.6406 25.7715Q31.4517 25.7715 29.8831 27.3401L29.6621 27.1191L29.9746 27.1191L29.9746 35.3125L27.8408 35.3125L27.5283 35.3125ZM27.8408 35L27.8408 24.1406L29.3398 24.1406L29.501 25.6982L29.5596 25.6982C30.5996 24.6777 31.7178 23.8623 33.2021 23.8623C35.4824 23.8623 36.5176 25.3418 36.5176 28.1201L36.5176 35L34.7012 35L34.7012 28.3594C34.7012 26.3184 34.0811 25.459 32.6406 25.459C31.5176 25.459 30.7607 26.0205 29.6621 27.1191L29.6621 35L27.8408 35ZM45.217 19.4673Q44.4244 19.1309 43.5178 19.1309Q40.6712 19.1309 40.6712 22.4023L40.6712 24.4332L38.8997 24.5501L38.8792 24.2383L39.1917 24.2383L39.1917 25.6201L38.8792 25.6201L38.8792 25.3076L40.6712 25.3076L40.6712 35L40.3587 35L40.3587 34.6875L42.1799 34.6875L42.1799 35L41.8674 35L41.8674 25.3076L44.4798 25.3076L44.4798 25.6201L44.1673 25.6201L44.1673 24.1406L44.4798 24.1406L44.4798 24.4531L41.8674 24.4531L41.8674 22.4219Q41.8674 19.9658 43.718 19.9658Q44.3783 19.9658 45.0673 20.2767L44.9387 20.5615L44.6386 20.4746L45.039 19.0927L45.3391 19.1797L45.217 19.4673ZM45.7164 19.0004L45.1386 20.9946L44.8102 20.8464Q44.2439 20.5908 43.718 20.5908Q42.4924 20.5908 42.4924 22.4219L42.4924 24.1406L42.1799 24.1406L42.1799 23.8281L44.7923 23.8281L44.7923 25.9326L42.1799 25.9326L42.1799 25.6201L42.4924 25.6201L42.4924 35.3125L40.0462 35.3125L40.0462 25.6201L40.3587 25.6201L40.3587 25.9326L38.5667 25.9326L38.5667 23.9457L40.3381 23.8288L40.3587 24.1406L40.0462 24.1406L40.0462 22.4023Q40.0462 18.5059 43.5178 18.5059Q44.5516 18.5059 45.4612 18.892L45.7164 19.0004ZM45.3391 19.1797L44.9387 20.5615C44.5383 20.3809 44.0989 20.2783 43.718 20.2783C42.678 20.2783 42.1799 21.0205 42.1799 22.4219L42.1799 24.1406L44.4798 24.1406L44.4798 25.6201L42.1799 25.6201L42.1799 35L40.3587 35L40.3587 25.6201L38.8792 25.6201L38.8792 24.2383L40.3587 24.1406L40.3587 22.4023C40.3587 20.2002 41.3596 18.8184 43.5178 18.8184C44.1819 18.8184 44.8215 18.96 45.3391 19.1797ZM49.9788 34.9463Q50.6913 34.9463 51.8847 34.561L51.9807 34.8584L51.6787 34.9388L51.3174 33.5814L51.6194 33.501L51.73 33.7933Q50.941 34.0918 50.3792 34.0918Q48.387 34.0918 48.387 31.6797L48.387 25.3076L51.6389 25.3076L51.6389 25.6201L51.3264 25.6201L51.3264 24.1406L51.6389 24.1406L51.6389 24.4531L48.387 24.4531L48.387 21.0986L48.6995 21.0986L48.6995 21.4111L47.1809 21.4111L47.1809 21.0986L47.4926 21.1211L47.2531 24.4369L45.2799 24.5503L45.262 24.2383L45.5745 24.2383L45.5745 25.6201L45.262 25.6201L45.262 25.3076L47.1907 25.3076L47.1907 31.6406Q47.1907 34.9463 49.9788 34.9463ZM49.9788 35.5713Q46.5657 35.5713 46.5657 31.6406L46.5657 25.6201L46.8782 25.6201L46.8782 25.9326L44.9495 25.9326L44.9495 23.9432L46.9433 23.8286L46.9612 24.1406L46.6495 24.1181L46.8902 20.7861L49.012 20.7861L49.012 24.1406L48.6995 24.1406L48.6995 23.8281L51.9514 23.8281L51.9514 25.9326L48.6995 25.9326L48.6995 25.6201L49.012 25.6201L49.012 31.6797Q49.012 33.4668 50.3792 33.4668Q50.8267 33.4668 51.5088 33.2087L51.8324 33.0863L52.359 35.0647L52.0767 35.1558Q50.7897 35.5713 49.9788 35.5713ZM49.9788 35.2588C47.6594 35.2588 46.8782 33.8184 46.8782 31.6406L46.8782 25.6201L45.262 25.6201L45.262 24.2383L46.9612 24.1406L47.1809 21.0986L48.6995 21.0986L48.6995 24.1406L51.6389 24.1406L51.6389 25.6201L48.6995 25.6201L48.6995 31.6797C48.6995 33.0176 49.1194 33.7793 50.3792 33.7793C50.76 33.7793 51.2581 33.6377 51.6194 33.501L51.9807 34.8584C51.3606 35.0586 50.638 35.2588 49.9788 35.2588ZM56.1208 34.9463Q57.722 34.9463 59.5204 33.4603L59.607 33.3887L60.0542 33.3887L60.2493 34.9615L59.9392 35L59.9392 34.6875L61.4382 34.6875L61.4382 35L61.1257 35L61.1257 28.3203Q61.1257 24.1748 57.6784 24.1748Q55.7083 24.1748 53.5694 25.5416L53.4011 25.2783L53.6726 25.1236L54.3904 26.3834L54.1189 26.5381L53.9448 26.2785Q55.7498 25.0684 57.3806 25.0684Q59.9343 25.0684 59.9343 28.1201L59.9343 28.3996L59.6565 28.4307Q53.2546 29.1473 53.2546 32.1777Q53.2546 33.4787 54.0608 34.225Q54.8399 34.9463 56.1208 34.9463ZM56.1208 35.5713Q54.595 35.5713 53.6362 34.6837Q52.6296 33.7519 52.6296 32.1777Q52.6296 28.5883 59.587 27.8096L59.6218 28.1201L59.3093 28.1201Q59.3093 25.6934 57.3806 25.6934Q55.9399 25.6934 54.2929 26.7976L54.0137 26.9848L52.9825 25.1749L53.2328 25.015Q55.5257 23.5498 57.6784 23.5498Q61.7507 23.5498 61.7507 28.3203L61.7507 35.3125L59.663 35.3125L59.4679 33.7396L59.778 33.7012L59.778 34.0137L59.7194 34.0137L59.7194 33.7012L59.9185 33.9421Q57.9468 35.5713 56.1208 35.5713ZM56.6384 34.1113Q54.4069 34.1113 54.4069 32.0605Q54.4069 29.6323 59.5845 29.011L59.9343 28.969L59.9343 32.4987L59.8295 32.5919Q58.1211 34.1113 56.6384 34.1113ZM56.6384 33.4863Q57.8834 33.4863 59.4141 32.1249L59.6218 32.3584L59.3093 32.3584L59.3093 29.3213L59.6218 29.3213L59.659 29.6316Q55.0319 30.1868 55.0319 32.0605Q55.0319 33.4863 56.6384 33.4863ZM56.6384 33.7988C57.698 33.7988 58.5622 33.3008 59.6218 32.3584L59.6218 29.3213C55.9597 29.7607 54.7194 30.6592 54.7194 32.0605C54.7194 33.3008 55.5593 33.7988 56.6384 33.7988ZM56.1208 35.2588C54.2995 35.2588 52.9421 34.1406 52.9421 32.1777C52.9421 29.8193 54.9978 28.6377 59.6218 28.1201C59.6218 26.7188 59.1579 25.3809 57.3806 25.3809C56.1208 25.3809 54.9782 25.9619 54.1189 26.5381L53.4011 25.2783C54.4021 24.6387 55.9401 23.8623 57.6784 23.8623C60.32 23.8623 61.4382 25.6396 61.4382 28.3203L61.4382 35L59.9392 35L59.778 33.7012L59.7194 33.7012C58.6794 34.5605 57.4587 35.2588 56.1208 35.2588ZM69.6811 34.9463Q71.505 34.9463 72.7406 33.5175Q74.0854 31.9625 74.0854 29.3799Q74.0854 26.9458 73.0375 25.5649Q71.9826 24.1748 70.0619 24.1748Q68.5326 24.1748 66.8645 25.6355L66.3229 26.1097L66.4097 23.4323L66.7221 23.4424L66.4096 23.4424L66.4096 19.082L66.7221 19.082L66.7221 19.3945L64.9008 19.3945L64.9008 19.082L65.2133 19.082L65.2133 35L64.9008 35L64.9008 34.6875L66.3607 34.6875L66.3607 35L66.0514 34.9554L66.2512 33.5693L66.7017 33.5693L66.7913 33.6511Q68.2087 34.9463 69.6811 34.9463ZM69.6811 35.5713Q67.9662 35.5713 66.3697 34.1125L66.5805 33.8818L66.5805 34.1943L66.5219 34.1943L66.5219 33.8818L66.8312 33.9264L66.6314 35.3125L64.5883 35.3125L64.5883 18.7695L67.0346 18.7695L67.0346 23.4474L66.9709 25.4105L66.6586 25.4004L66.4527 25.1653Q68.2977 23.5498 70.0619 23.5498Q72.2929 23.5498 73.5353 25.1871Q74.7104 26.7355 74.7104 29.3799Q74.7104 32.1953 73.2133 33.9263Q71.7908 35.5713 69.6811 35.5713ZM69.3783 34.0527Q67.8984 34.0527 66.5153 32.8319L66.4096 32.7386L66.4096 26.7646L66.5076 26.6721Q68.1864 25.0879 69.642 25.0879Q72.8109 25.0879 72.8109 29.4189Q72.8109 31.5119 71.8644 32.7792Q70.9132 34.0527 69.3783 34.0527ZM69.3783 33.4277Q70.5999 33.4277 71.3637 32.4052Q72.1859 31.3043 72.1859 29.4189Q72.1859 25.7129 69.642 25.7129Q68.4348 25.7129 66.9366 27.1267L66.7221 26.8994L67.0346 26.8994L67.0346 32.5977L66.7221 32.5977L66.9289 32.3634Q68.1348 33.4277 69.3783 33.4277ZM69.3783 33.7402C71.1801 33.7402 72.4984 32.1191 72.4984 29.4189C72.4984 27.0215 71.6977 25.4004 69.642 25.4004C68.7191 25.4004 67.7621 25.918 66.7221 26.8994L66.7221 32.5977C67.6791 33.4424 68.6606 33.7402 69.3783 33.7402ZM69.6811 35.2588C68.6801 35.2588 67.5424 34.7607 66.5805 33.8818L66.5219 33.8818L66.3607 35L64.9008 35L64.9008 19.082L66.7221 19.082L66.7221 23.4424L66.6586 25.4004C67.64 24.541 68.8607 23.8623 70.0619 23.8623C72.8793 23.8623 74.3979 26.0596 74.3979 29.3799C74.3979 33.1201 72.1811 35.2588 69.6811 35.2588ZM79.1797 34.9463Q79.773 34.9463 80.1242 34.8071L80.2393 35.0977L79.932 35.1546L79.6732 33.7581L79.9805 33.7012L80.0403 34.0079Q79.8105 34.0527 79.5996 34.0527Q78.7696 34.0527 78.7696 32.959L78.7696 19.082L79.0821 19.082L79.0821 19.3945L77.2608 19.3945L77.2608 19.082L77.5733 19.082L77.5733 32.8418Q77.5733 34.9463 79.1797 34.9463ZM79.1797 35.5713Q76.9483 35.5713 76.9483 32.8418L76.9483 18.7695L79.3946 18.7695L79.3946 32.959Q79.3946 33.4277 79.5996 33.4277Q79.7501 33.4277 79.9207 33.3945L80.2303 33.334L80.5934 35.2935L80.3544 35.3882Q79.8923 35.5713 79.1797 35.5713ZM79.1797 35.2588C77.8223 35.2588 77.2608 34.3799 77.2608 32.8418L77.2608 19.082L79.0821 19.082L79.0821 32.959C79.0821 33.5205 79.3213 33.7402 79.5996 33.7402C79.7022 33.7402 79.7803 33.7402 79.9805 33.7012L80.2393 35.0977C79.9805 35.2002 79.6582 35.2588 79.1797 35.2588ZM87.3407 34.9463Q89.1212 34.9463 90.7694 33.8784L90.9393 34.1406L90.6653 34.291L90.0061 33.0898L90.2801 32.9395L90.4553 33.1982Q89.1062 34.1113 87.5604 34.1113Q85.8774 34.1113 84.8058 32.9845Q83.7432 31.8671 83.6496 30.0158L83.6331 29.6875L91.2811 29.6875L91.2811 30L90.9721 29.9534Q91.0467 29.459 91.0467 28.96Q91.0467 26.7178 89.9943 25.4478Q88.9395 24.1748 87.0379 24.1748Q85.1959 24.1748 83.8744 25.6125Q82.453 27.1589 82.453 29.5801Q82.453 32.0632 83.8849 33.5444Q85.2402 34.9463 87.3407 34.9463ZM87.3407 35.5713Q84.9751 35.5713 83.4356 33.9788Q81.828 32.3159 81.828 29.5801Q81.828 26.9153 83.4143 25.1895Q84.9215 23.5498 87.0379 23.5498Q89.2333 23.5498 90.4756 25.049Q91.6717 26.4925 91.6717 28.96Q91.6717 29.5059 91.5901 30.0466L91.5499 30.3125L83.9617 30.3125L83.9617 30L84.2738 29.9842Q84.3557 31.6042 85.2588 32.5538Q86.1456 33.4863 87.5604 33.4863Q88.9146 33.4863 90.1049 32.6807L90.389 32.4884L91.353 34.2449L91.1092 34.4029Q89.306 35.5713 87.3407 35.5713ZM83.6313 28.6693Q83.8025 26.9994 84.7818 25.9903Q85.7332 25.0098 87.0623 25.0098Q90.0701 25.0098 90.0701 28.7012L90.0701 29.0137L83.596 29.0137L83.6313 28.6693ZM84.2531 28.733L83.9422 28.7012L83.9422 28.3887L89.7576 28.3887L89.7576 28.7012L89.4451 28.7012Q89.4451 25.6348 87.0623 25.6348Q85.9976 25.6348 85.2303 26.4255Q84.4021 27.279 84.2531 28.733ZM83.9422 28.7012L89.7576 28.7012C89.7576 26.499 88.7616 25.3223 87.0623 25.3223C85.5194 25.3223 84.1619 26.5576 83.9422 28.7012ZM87.3407 35.2588C84.4598 35.2588 82.1405 33.1592 82.1405 29.5801C82.1405 26.0596 84.5184 23.8623 87.0379 23.8623C89.8016 23.8623 91.3592 25.8594 91.3592 28.96C91.3592 29.3604 91.3201 29.7412 91.2811 30L83.9617 30C84.0789 32.3193 85.4998 33.7988 87.5604 33.7988C88.6199 33.7988 89.4793 33.4814 90.2801 32.9395L90.9393 34.1406C89.9823 34.7607 88.8201 35.2588 87.3407 35.2588ZM96.8777 34.9463Q98.6142 34.9463 99.6134 34.0737Q100.525 33.2775 100.525 32.041Q100.525 30.8378 99.5975 30.1039Q99.0143 29.6426 97.4612 29.0514Q97.4248 29.0375 97.411 29.0323Q97.3459 29.0078 97.2135 28.9584Q96.0546 28.5259 95.6164 28.2303Q94.8074 27.6842 94.8074 26.8604Q94.8074 24.9854 97.1023 24.9854Q98.4002 24.9853 99.7877 26.0082L99.6023 26.2598L99.3515 26.0733L100.23 24.8916L100.481 25.0781L100.291 25.3261Q98.7901 24.1748 97.1023 24.1748Q95.4938 24.1748 94.5506 24.992Q93.6745 25.751 93.6745 26.9385Q93.6745 28.6732 96.7069 29.7847Q99.3923 30.8217 99.3923 32.1387Q99.3923 34.1504 96.9411 34.1504Q95.1907 34.1504 93.522 32.8016L93.7185 32.5586L93.9687 32.7458L93.0703 33.9469L92.8201 33.7598L93.0191 33.5189Q94.7466 34.9463 96.8777 34.9463ZM96.8777 35.5713Q94.5218 35.5713 92.621 34.0007L92.3915 33.811L93.6626 32.1116L93.9149 32.3156Q95.4117 33.5254 96.9411 33.5254Q98.7673 33.5254 98.7673 32.1387Q98.7673 31.2503 96.4918 30.3715Q93.0495 29.1097 93.0495 26.9385Q93.0495 25.4656 94.1413 24.5197Q95.2607 23.5498 97.1023 23.5498Q99.0022 23.5498 100.671 24.8302L100.916 25.0176L99.6673 26.6959L99.4168 26.5113Q98.1947 25.6104 97.1023 25.6104Q95.4324 25.6104 95.4324 26.8604Q95.4324 27.6267 97.432 28.3728Q97.5653 28.4226 97.6334 28.4482Q97.6501 28.4546 97.6835 28.4673Q99.3266 29.0927 99.9852 29.6138Q101.15 30.5353 101.15 32.041Q101.15 33.5615 100.025 34.5445Q98.8487 35.5713 96.8777 35.5713ZM96.8777 35.2588C95.3396 35.2588 93.8601 34.6191 92.8201 33.7598L93.7185 32.5586C94.6609 33.3203 95.6423 33.8379 96.9411 33.8379C98.3816 33.8379 99.0798 33.0811 99.0798 32.1387C99.0798 31.04 97.8005 30.542 96.5993 30.0781C95.0808 29.5215 93.362 28.7793 93.362 26.9385C93.362 25.2197 94.739 23.8623 97.1023 23.8623C98.4402 23.8623 99.6218 24.4189 100.481 25.0781L99.6023 26.2598C98.8406 25.6982 98.0788 25.2979 97.1023 25.2979C95.74 25.2979 95.1199 26.0205 95.1199 26.8604C95.1199 27.9004 96.3015 28.2812 97.5222 28.7402C99.0993 29.3408 100.838 29.9805 100.838 32.041C100.838 33.7988 99.4411 35.2588 96.8777 35.2588Z" fill="#000000" fill-opacity="1.000000" transform="matrix(1 0 0 1 18.2106 284.336)"/><path d="" fill="none" stroke="#000000" stroke-opacity="1.000000" stroke-width="3" stroke-linejoin="round" stroke-linecap="round" stroke-dasharray="0 0" transform="matrix(1 0 0 1 18.2106 284.336)"/><path d="M24.207 26.207C24.7344 26.207 25.3125 26.0469 25.8086 25.8867L25.5195 24.8008C25.2305 24.9102 24.832 25.0234 24.5273 25.0234C23.5195 25.0234 23.1836 24.4141 23.1836 23.3438L23.1836 18.4961L25.5352 18.4961L25.5352 17.3125L23.1836 17.3125L23.1836 14.8789L21.9688 14.8789L21.793 17.3125L20.4336 17.3906L20.4336 18.4961L21.7266 18.4961L21.7266 23.3125C21.7266 25.0547 22.3516 26.207 24.207 26.207ZM29.1207 26.207C30.191 26.207 31.1675 25.6484 31.9996 24.9609L32.0464 24.9609L32.1754 26L33.3746 26L33.3746 20.6562C33.3746 18.5117 32.48 17.0898 30.3668 17.0898C28.9761 17.0898 27.7457 17.7109 26.9449 18.2227L27.5191 19.2305C28.2066 18.7695 29.1207 18.3047 30.1285 18.3047C31.5504 18.3047 31.9214 19.375 31.9214 20.4961C28.2222 20.9102 26.5777 21.8555 26.5777 23.7422C26.5777 25.3125 27.6636 26.207 29.1207 26.207ZM29.5347 25.0391C28.6714 25.0391 27.9996 24.6406 27.9996 23.6484C27.9996 22.5273 28.9918 21.8086 31.9214 21.457L31.9214 23.8867C31.0738 24.6406 30.3824 25.0391 29.5347 25.0391ZM39.9689 26.207C41.9689 26.207 43.7423 24.4961 43.7423 21.5039C43.7423 18.8477 42.5275 17.0898 40.2736 17.0898C39.3127 17.0898 38.3361 17.6328 37.5509 18.3203L37.6017 16.7539L37.6017 13.2656L36.1447 13.2656L36.1447 26L37.3127 26L37.4416 25.1055L37.4884 25.1055C38.258 25.8086 39.1681 26.207 39.9689 26.207ZM39.7267 24.9922C39.1525 24.9922 38.3673 24.7539 37.6017 24.0781L37.6017 19.5195C38.4337 18.7344 39.1994 18.3203 39.9377 18.3203C41.5822 18.3203 42.2228 19.6172 42.2228 21.5352C42.2228 23.6953 41.1681 24.9922 39.7267 24.9922ZM47.5679 26.207C47.9507 26.207 48.2085 26.1602 48.4155 26.0781L48.2085 24.9609C48.0483 24.9922 47.9858 24.9922 47.9038 24.9922C47.6811 24.9922 47.4897 24.8164 47.4897 24.3672L47.4897 13.2656L46.0327 13.2656L46.0327 24.2734C46.0327 25.5039 46.4819 26.207 47.5679 26.207ZM54.0966 26.207C55.2802 26.207 56.2099 25.8086 56.9755 25.3125L56.4482 24.3516C55.8076 24.7852 55.1201 25.0391 54.2724 25.0391C52.624 25.0391 51.4872 23.8555 51.3935 22L57.249 22C57.2802 21.793 57.3115 21.4883 57.3115 21.168C57.3115 18.6875 56.0654 17.0898 53.8544 17.0898C51.8388 17.0898 49.9365 18.8477 49.9365 21.6641C49.9365 24.5273 51.7919 26.207 54.0966 26.207ZM51.3779 20.9609C51.5536 19.2461 52.6396 18.2578 53.874 18.2578C55.2333 18.2578 56.0302 19.1992 56.0302 20.9609L51.3779 20.9609Z" fill="#000000" fill-opacity="1.000000" transform="matrix(1 0 0 1 206.771 394.211)"/><path d="M-60 -82.875C-37.2 -82.875 -24 20 0 20" fill="none" stroke="#3DCC84" stroke-opacity="1.000000" stroke-width="3" stroke-linejoin="round" stroke-linecap="round" stroke-dasharray="0 0" transform="matrix(1 0 0 1 206.771 394.211)"/><path d="M24.207 26.207C24.7344 26.207 25.3125 26.0469 25.8086 25.8867L25.5195 24.8008C25.2305 24.9102 24.832 25.0234 24.5273 25.0234C23.5195 25.0234 23.1836 24.4141 23.1836 23.3438L23.1836 18.4961L25.5352 18.4961L25.5352 17.3125L23.1836 17.3125L23.1836 14.8789L21.9688 14.8789L21.793 17.3125L20.4336 17.3906L20.4336 18.4961L21.7266 18.4961L21.7266 23.3125C21.7266 25.0547 22.3516 26.207 24.207 26.207ZM29.1207 26.207C30.191 26.207 31.1675 25.6484 31.9996 24.9609L32.0464 24.9609L32.1754 26L33.3746 26L33.3746 20.6562C33.3746 18.5117 32.48 17.0898 30.3668 17.0898C28.9761 17.0898 27.7457 17.7109 26.9449 18.2227L27.5191 19.2305C28.2066 18.7695 29.1207 18.3047 30.1285 18.3047C31.5504 18.3047 31.9214 19.375 31.9214 20.4961C28.2222 20.9102 26.5777 21.8555 26.5777 23.7422C26.5777 25.3125 27.6636 26.207 29.1207 26.207ZM29.5347 25.0391C28.6714 25.0391 27.9996 24.6406 27.9996 23.6484C27.9996 22.5273 28.9918 21.8086 31.9214 21.457L31.9214 23.8867C31.0738 24.6406 30.3824 25.0391 29.5347 25.0391ZM39.9689 26.207C41.9689 26.207 43.7423 24.4961 43.7423 21.5039C43.7423 18.8477 42.5275 17.0898 40.2736 17.0898C39.3127 17.0898 38.3361 17.6328 37.5509 18.3203L37.6017 16.7539L37.6017 13.2656L36.1447 13.2656L36.1447 26L37.3127 26L37.4416 25.1055L37.4884 25.1055C38.258 25.8086 39.1681 26.207 39.9689 26.207ZM39.7267 24.9922C39.1525 24.9922 38.3673 24.7539 37.6017 24.0781L37.6017 19.5195C38.4337 18.7344 39.1994 18.3203 39.9377 18.3203C41.5822 18.3203 42.2228 19.6172 42.2228 21.5352C42.2228 23.6953 41.1681 24.9922 39.7267 24.9922ZM47.5679 26.207C47.9507 26.207 48.2085 26.1602 48.4155 26.0781L48.2085 24.9609C48.0483 24.9922 47.9858 24.9922 47.9038 24.9922C47.6811 24.9922 47.4897 24.8164 47.4897 24.3672L47.4897 13.2656L46.0327 13.2656L46.0327 24.2734C46.0327 25.5039 46.4819 26.207 47.5679 26.207ZM54.0966 26.207C55.2802 26.207 56.2099 25.8086 56.9755 25.3125L56.4482 24.3516C55.8076 24.7852 55.1201 25.0391 54.2724 25.0391C52.624 25.0391 51.4872 23.8555 51.3935 22L57.249 22C57.2802 21.793 57.3115 21.4883 57.3115 21.168C57.3115 18.6875 56.0654 17.0898 53.8544 17.0898C51.8388 17.0898 49.9365 18.8477 49.9365 21.6641C49.9365 24.5273 51.7919 26.207 54.0966 26.207ZM51.3779 20.9609C51.5536 19.2461 52.6396 18.2578 53.874 18.2578C55.2333 18.2578 56.0302 19.1992 56.0302 20.9609L51.3779 20.9609Z" fill="#000000" fill-opacity="1.000000" transform="matrix(1 0 0 1 206.771 330.211)"/><path d="M-60 -18.875C-37.2 -18.875 -24 20 0 20" fill="none" stroke="#3F82FF" stroke-opacity="1.000000" stroke-width="3" stroke-linejoin="round" stroke-linecap="round" stroke-dasharray="0 0" transform="matrix(1 0 0 1 206.771 330.211)"/><path d="M24.207 26.207C24.7344 26.207 25.3125 26.0469 25.8086 25.8867L25.5195 24.8008C25.2305 24.9102 24.832 25.0234 24.5273 25.0234C23.5195 25.0234 23.1836 24.4141 23.1836 23.3438L23.1836 18.4961L25.5352 18.4961L25.5352 17.3125L23.1836 17.3125L23.1836 14.8789L21.9688 14.8789L21.793 17.3125L20.4336 17.3906L20.4336 18.4961L21.7266 18.4961L21.7266 23.3125C21.7266 25.0547 22.3516 26.207 24.207 26.207ZM29.1207 26.207C30.191 26.207 31.1675 25.6484 31.9996 24.9609L32.0464 24.9609L32.1754 26L33.3746 26L33.3746 20.6562C33.3746 18.5117 32.48 17.0898 30.3668 17.0898C28.9761 17.0898 27.7457 17.7109 26.9449 18.2227L27.5191 19.2305C28.2066 18.7695 29.1207 18.3047 30.1285 18.3047C31.5504 18.3047 31.9214 19.375 31.9214 20.4961C28.2222 20.9102 26.5777 21.8555 26.5777 23.7422C26.5777 25.3125 27.6636 26.207 29.1207 26.207ZM29.5347 25.0391C28.6714 25.0391 27.9996 24.6406 27.9996 23.6484C27.9996 22.5273 28.9918 21.8086 31.9214 21.457L31.9214 23.8867C31.0738 24.6406 30.3824 25.0391 29.5347 25.0391ZM39.9689 26.207C41.9689 26.207 43.7423 24.4961 43.7423 21.5039C43.7423 18.8477 42.5275 17.0898 40.2736 17.0898C39.3127 17.0898 38.3361 17.6328 37.5509 18.3203L37.6017 16.7539L37.6017 13.2656L36.1447 13.2656L36.1447 26L37.3127 26L37.4416 25.1055L37.4884 25.1055C38.258 25.8086 39.1681 26.207 39.9689 26.207ZM39.7267 24.9922C39.1525 24.9922 38.3673 24.7539 37.6017 24.0781L37.6017 19.5195C38.4337 18.7344 39.1994 18.3203 39.9377 18.3203C41.5822 18.3203 42.2228 19.6172 42.2228 21.5352C42.2228 23.6953 41.1681 24.9922 39.7267 24.9922ZM47.5679 26.207C47.9507 26.207 48.2085 26.1602 48.4155 26.0781L48.2085 24.9609C48.0483 24.9922 47.9858 24.9922 47.9038 24.9922C47.6811 24.9922 47.4897 24.8164 47.4897 24.3672L47.4897 13.2656L46.0327 13.2656L46.0327 24.2734C46.0327 25.5039 46.4819 26.207 47.5679 26.207ZM54.0966 26.207C55.2802 26.207 56.2099 25.8086 56.9755 25.3125L56.4482 24.3516C55.8076 24.7852 55.1201 25.0391 54.2724 25.0391C52.624 25.0391 51.4872 23.8555 51.3935 22L57.249 22C57.2802 21.793 57.3115 21.4883 57.3115 21.168C57.3115 18.6875 56.0654 17.0898 53.8544 17.0898C51.8388 17.0898 49.9365 18.8477 49.9365 21.6641C49.9365 24.5273 51.7919 26.207 54.0966 26.207ZM51.3779 20.9609C51.5536 19.2461 52.6396 18.2578 53.874 18.2578C55.2333 18.2578 56.0302 19.1992 56.0302 20.9609L51.3779 20.9609Z" fill="#000000" fill-opacity="1.000000" transform="matrix(1 0 0 1 206.771 188.461)"/><path d="M-60 122.875C-37.2 122.875 -24 20 0 20" fill="none" stroke="#9D62F5" stroke-opacity="1.000000" stroke-width="3" stroke-linejoin="round" stroke-linecap="round" stroke-dasharray="0 0" transform="matrix(1 0 0 1 206.771 188.461)"/><path d="M20.2827 20.1812C21.1953 20.1812 22.0635 19.8325 22.7334 19.2173L22.1865 18.3628C21.7114 18.7969 21.0962 19.1182 20.3955 19.1182C18.9976 19.1182 18.0439 17.9561 18.0439 16.2061C18.0439 14.4561 19.0522 13.2666 20.4229 13.2666C21.0415 13.2666 21.5029 13.5469 21.9507 13.9536L22.6069 13.0991C22.0635 12.6206 21.3765 12.2036 20.3818 12.2036C18.437 12.2036 16.7144 13.6733 16.7144 16.2061C16.7144 18.7251 18.2695 20.1812 20.2827 20.1812ZM24.4146 20L25.6895 20L25.6895 14.4834C26.4585 13.7144 26.9883 13.3213 27.7744 13.3213C28.7827 13.3213 29.2168 13.9229 29.2168 15.3516L29.2168 20L30.4883 20L30.4883 15.1841C30.4883 13.2393 29.7637 12.2036 28.1675 12.2036C27.1284 12.2036 26.3457 12.7744 25.645 13.4751L25.6895 11.9097L25.6895 8.85742L24.4146 8.85742L24.4146 20ZM34.6625 20.1812C35.599 20.1812 36.4535 19.6924 37.1816 19.0908L37.2226 19.0908L37.3354 20L38.3847 20L38.3847 15.3242C38.3847 13.4478 37.602 12.2036 35.7529 12.2036C34.5361 12.2036 33.4594 12.7471 32.7587 13.1948L33.2612 14.0767C33.8627 13.6733 34.6625 13.2666 35.5444 13.2666C36.7885 13.2666 37.1132 14.2031 37.1132 15.1841C33.8764 15.5464 32.4374 16.3735 32.4374 18.0244C32.4374 19.3984 33.3876 20.1812 34.6625 20.1812ZM35.0248 19.1592C34.2695 19.1592 33.6816 18.8105 33.6816 17.9424C33.6816 16.9614 34.5497 16.3325 37.1132 16.0249L37.1132 18.1509C36.3715 18.8105 35.7665 19.1592 35.0248 19.1592ZM40.8085 20L42.0834 20L42.0834 12.3984L40.8085 12.3984L40.8085 20ZM41.4511 10.8296C41.9569 10.8296 42.3329 10.481 42.3329 10.0024C42.3329 9.48633 41.9569 9.17871 41.4511 9.17871C40.9486 9.17871 40.5692 9.48633 40.5692 10.0024C40.5692 10.481 40.9486 10.8296 41.4511 10.8296ZM44.6585 20L45.9334 20L45.9334 14.4834C46.7024 13.7144 47.2322 13.3213 48.0183 13.3213C49.0266 13.3213 49.4607 13.9229 49.4607 15.3516L49.4607 20L50.7322 20L50.7322 15.1841C50.7322 13.2393 50.0076 12.2036 48.4114 12.2036C47.3723 12.2036 46.5896 12.7744 45.8616 13.4888L45.8206 13.4888L45.7078 12.3984L44.6585 12.3984L44.6585 20Z" fill="#000000" fill-opacity="1.000000" transform="matrix(1 0 0 1 345.555 277.211)"/><path d="M-60 -68.75C-37.2 -68.75 -24 14.5 0 14.5" fill="none" stroke="#9D62F5" stroke-opacity="1.000000" stroke-width="3" stroke-linejoin="round" stroke-linecap="round" stroke-dasharray="0 0" transform="matrix(1 0 0 1 345.555 277.211)"/><path d="M20.2827 20.1812C21.1953 20.1812 22.0635 19.8325 22.7334 19.2173L22.1865 18.3628C21.7114 18.7969 21.0962 19.1182 20.3955 19.1182C18.9976 19.1182 18.0439 17.9561 18.0439 16.2061C18.0439 14.4561 19.0522 13.2666 20.4229 13.2666C21.0415 13.2666 21.5029 13.5469 21.9507 13.9536L22.6069 13.0991C22.0635 12.6206 21.3765 12.2036 20.3818 12.2036C18.437 12.2036 16.7144 13.6733 16.7144 16.2061C16.7144 18.7251 18.2695 20.1812 20.2827 20.1812ZM24.4146 20L25.6895 20L25.6895 14.4834C26.4585 13.7144 26.9883 13.3213 27.7744 13.3213C28.7827 13.3213 29.2168 13.9229 29.2168 15.3516L29.2168 20L30.4883 20L30.4883 15.1841C30.4883 13.2393 29.7637 12.2036 28.1675 12.2036C27.1284 12.2036 26.3457 12.7744 25.645 13.4751L25.6895 11.9097L25.6895 8.85742L24.4146 8.85742L24.4146 20ZM34.6625 20.1812C35.599 20.1812 36.4535 19.6924 37.1816 19.0908L37.2226 19.0908L37.3354 20L38.3847 20L38.3847 15.3242C38.3847 13.4478 37.602 12.2036 35.7529 12.2036C34.5361 12.2036 33.4594 12.7471 32.7587 13.1948L33.2612 14.0767C33.8627 13.6733 34.6625 13.2666 35.5444 13.2666C36.7885 13.2666 37.1132 14.2031 37.1132 15.1841C33.8764 15.5464 32.4374 16.3735 32.4374 18.0244C32.4374 19.3984 33.3876 20.1812 34.6625 20.1812ZM35.0248 19.1592C34.2695 19.1592 33.6816 18.8105 33.6816 17.9424C33.6816 16.9614 34.5497 16.3325 37.1132 16.0249L37.1132 18.1509C36.3715 18.8105 35.7665 19.1592 35.0248 19.1592ZM40.8085 20L42.0834 20L42.0834 12.3984L40.8085 12.3984L40.8085 20ZM41.4511 10.8296C41.9569 10.8296 42.3329 10.481 42.3329 10.0024C42.3329 9.48633 41.9569 9.17871 41.4511 9.17871C40.9486 9.17871 40.5692 9.48633 40.5692 10.0024C40.5692 10.481 40.9486 10.8296 41.4511 10.8296ZM44.6585 20L45.9334 20L45.9334 14.4834C46.7024 13.7144 47.2322 13.3213 48.0183 13.3213C49.0266 13.3213 49.4607 13.9229 49.4607 15.3516L49.4607 20L50.7322 20L50.7322 15.1841C50.7322 13.2393 50.0076 12.2036 48.4114 12.2036C47.3723 12.2036 46.5896 12.7744 45.8616 13.4888L45.8206 13.4888L45.7078 12.3984L44.6585 12.3984L44.6585 20Z" fill="#000000" fill-opacity="1.000000" transform="matrix(1 0 0 1 345.555 221.711)"/><path d="M-60 -13.25C-37.2 -13.25 -24 14.5 0 14.5" fill="none" stroke="#9D62F5" stroke-opacity="1.000000" stroke-width="3" stroke-linejoin="round" stroke-linecap="round" stroke-dasharray="0 0" transform="matrix(1 0 0 1 345.555 221.711)"/><path d="M20.3955 13.1401L25.6729 13.1401L25.6729 14.5107L20.3955 14.5107L20.3955 13.1401ZM27.9971 16.4453L23.7007 16.4453L23.7007 15.2969L26.7085 15.2969L26.7085 12.3574L19.4009 12.3574L19.4009 15.2969L22.6514 15.2969L22.6514 16.4453L18.1567 16.4453L18.1567 20.4478L19.1924 20.4478L19.1924 17.3955L22.6514 17.3955L22.6514 21.0767L23.7007 21.0767L23.7007 17.3955L26.9478 17.3955L26.9478 19.3574C26.9478 19.5249 26.8794 19.5659 26.6675 19.5796C26.459 19.5933 25.7173 19.5933 24.8765 19.5659C25.0166 19.8462 25.1841 20.2256 25.2388 20.5195C26.3188 20.5195 27.0195 20.5195 27.4536 20.3486C27.8843 20.1948 27.9971 19.9146 27.9971 19.3711L27.9971 16.4453ZM26.6401 8.39258C26.3735 8.89844 25.8711 9.64014 25.478 10.1016L26.3188 10.4536C26.7256 10.0332 27.2554 9.38721 27.7168 8.77197L26.6401 8.39258ZM28.8516 10.4536L23.6152 10.4536L23.6152 8.2832L22.5659 8.2832L22.5659 10.4536L19.6401 10.4536L20.5083 10.0605C20.269 9.59912 19.7803 8.91211 19.3188 8.42334L18.3926 8.79932C18.7993 9.30518 19.2744 9.98877 19.4863 10.4536L17.2476 10.4536L17.2476 13.4478L18.2388 13.4478L18.2388 11.3628L27.8296 11.3628L27.8296 13.4478L28.8516 13.4478L28.8516 10.4536ZM37.6596 9.89307L41.5219 9.89307L41.5219 16.3462L42.5439 16.3462L42.5439 8.9668L36.665 8.9668L36.665 16.3462L37.6596 16.3462L37.6596 9.89307ZM36.0908 18.2363C35.7524 17.8159 34.3408 16.1514 33.7939 15.5771C33.8212 15.3105 33.8486 15.0576 33.8793 14.8047L35.9916 14.8047L35.9916 13.8271L33.9203 13.8271C33.934 13.5332 33.934 13.2256 33.934 12.9453L33.934 11.5713L35.8378 11.5713L35.8378 10.6074L33.934 10.6074L33.934 8.43701L32.9531 8.43701L32.9531 10.6074L30.9536 10.6074L30.9536 11.5713L32.9531 11.5713L32.9531 12.959C32.9531 13.2256 32.9531 13.5332 32.9394 13.8271L30.6425 13.8271L30.6425 14.8047L32.8984 14.8047C32.7582 16.6812 32.2695 18.8242 30.5605 20.2085C30.8134 20.3623 31.162 20.7144 31.2885 20.9229C32.6181 19.7471 33.2914 18.1953 33.6127 16.6401C34.228 17.4092 35.0414 18.4756 35.3627 19.019L36.0908 18.2363ZM40.9887 19.9453C40.6264 19.9453 40.5136 19.8599 40.5136 19.4805L40.5136 15.9395L39.871 15.9395C40.0385 15.1841 40.0932 14.4424 40.0932 13.7554L40.0932 11.0825L39.1122 11.0825L39.1122 13.7417C39.1122 15.8984 38.6816 18.5166 35.1816 20.3076C35.3627 20.4478 35.6977 20.8545 35.8242 21.063C37.9365 19.959 39.0302 18.4756 39.5771 16.9614L39.5771 19.5796C39.5771 20.5195 39.9394 20.769 40.8486 20.769L41.956 20.769C43.1044 20.769 43.2719 20.2256 43.3847 18.0552C43.1318 17.9971 42.7831 17.8433 42.5302 17.6484C42.4755 19.5796 42.4037 19.9453 41.9697 19.9453L40.9887 19.9453ZM53.953 19.2173L54.9476 19.2173L54.9476 16.8794L57.2855 16.8794L57.2855 15.9531L54.9476 15.9531L54.9476 14.063L56.9369 14.063L56.9369 13.1812L54.9476 13.1812L54.9476 11.5166L53.953 11.5166L53.953 13.1812L52.5106 13.1812C52.8763 12.4531 53.2386 11.5986 53.577 10.6895L57.1864 10.6895L57.1864 9.75293L53.8846 9.75293C54.0248 9.31885 54.1649 8.88477 54.2743 8.45068L53.2386 8.25244C53.1429 8.74463 53.0302 9.26074 52.89 9.75293L51.0682 9.75293L51.0682 10.6895L52.5824 10.6895C52.3158 11.5029 52.0492 12.1592 51.9364 12.4121C51.7006 12.9009 51.5023 13.2666 51.2938 13.3213C51.4203 13.5879 51.5604 14.0493 51.6151 14.2612C51.7416 14.1484 52.1483 14.063 52.6815 14.063L53.953 14.063L53.953 15.9531L51.0682 15.9531L51.0682 16.8794L53.953 16.8794L53.953 19.2173ZM50.7743 11.2637C50.5521 10.6074 50.077 9.59912 49.6293 8.82666L48.7748 9.1377C49.2089 9.89307 49.6703 10.9424 49.8788 11.6157L50.7743 11.2637ZM48.5082 10.8022L48.5082 9.89307L46.4506 9.89307C46.618 9.45898 46.7445 8.99756 46.8573 8.56348L45.9584 8.32422C45.6815 9.59912 45.1757 10.8569 44.5194 11.6978C44.6869 11.9097 44.9672 12.3984 45.0492 12.6069C45.4286 12.1045 45.7909 11.4893 46.0848 10.8022L48.5082 10.8022ZM47.1512 18.978L47.1512 16.0933L48.5902 16.0933L48.5902 15.1841L47.1512 15.1841L47.1512 13.2529L48.1732 13.2529L48.1732 12.3574L45.3431 12.3574L45.3431 13.2529L46.2113 13.2529L46.2113 15.1841L44.7552 15.1841L44.7552 16.0933L46.2113 16.0933L46.2113 18.8652C46.2113 19.5386 45.7909 20 45.5414 20.1948C45.7089 20.3486 45.9755 20.7007 46.0848 20.9092C46.2831 20.6597 46.618 20.3931 48.7167 18.937C48.621 18.7524 48.4808 18.3901 48.4091 18.1509L47.1512 18.978ZM50.6649 13.0854L48.703 13.0854L48.703 14.0356L49.7113 14.0356L49.7113 18.6841C49.2225 18.9233 48.6757 19.4121 48.1425 20L48.8158 20.9365C49.3353 20.1812 49.8925 19.4531 50.2719 19.4531C50.5521 19.4531 50.9452 19.7915 51.4203 20.1265C52.162 20.5879 53.0165 20.7827 54.1923 20.7827C55.0604 20.7827 56.5302 20.7417 57.2719 20.7007C57.2855 20.4067 57.412 19.9009 57.5111 19.6069C56.5848 19.7334 55.1288 19.7915 54.2196 19.7915C53.1293 19.7915 52.2885 19.665 51.5878 19.231C51.1947 18.978 50.9315 18.7388 50.6649 18.6294L50.6649 13.0854Z" fill="#000000" fill-opacity="1.000000" transform="matrix(1 0 0 1 474.178 240.211)"/><path d="M-60 -4C-37.2 -4 -24 14.5 0 14.5" fill="none" stroke="#9D62F5" stroke-opacity="1.000000" stroke-width="3" stroke-linejoin="round" stroke-linecap="round" stroke-dasharray="0 0" transform="matrix(1 0 0 1 474.178 240.211)"/><path d="M23.4888 18.3354L26.4146 18.3354L26.4146 17.481L23.4888 17.481L23.4888 16.3052L22.4531 16.3052L22.4531 17.481L19.5991 17.481L19.5991 18.3354L22.4531 18.3354L22.4531 19.8052L17.7637 19.8052L17.7637 20.687L28.3184 20.687L28.3184 19.8052L23.4888 19.8052L23.4888 18.3354ZM20.481 13.981L25.5635 13.981L25.5635 14.9756L20.481 14.9756L20.481 13.981ZM25.5635 10.5083L25.5635 11.4448L20.481 11.4448L20.481 10.5083L25.5635 10.5083ZM20.481 12.231L25.5635 12.231L25.5635 13.1948L20.481 13.1948L20.481 12.231ZM29.313 15.8574L29.313 14.9756L26.6128 14.9756L26.6128 10.5083L28.7114 10.5083L28.7114 9.64014L26.6128 9.64014L26.6128 8.29688L25.5635 8.29688L25.5635 9.64014L20.481 9.64014L20.481 8.29688L19.459 8.29688L19.459 9.64014L17.3296 9.64014L17.3296 10.5083L19.459 10.5083L19.459 14.9756L16.687 14.9756L16.687 15.8574L19.7085 15.8574C18.9121 16.8486 17.709 17.7305 16.5469 18.1953C16.7827 18.3901 17.063 18.7388 17.2168 18.9917C18.5771 18.3628 19.9888 17.1597 20.8706 15.8574L25.2524 15.8574C26.0933 17.0879 27.4536 18.25 28.8105 18.8105C28.9644 18.5713 29.2583 18.209 29.4976 18.0107C28.3184 17.5903 27.1289 16.7803 26.3462 15.8574L29.313 15.8574ZM34.2827 18.3765L32.5463 18.3765L32.5463 14.2476L34.2827 14.2476L34.2827 18.3765ZM30.7553 9.98877L32.4643 9.98877C32.0849 12.1182 31.4423 14.0903 30.4614 15.4097C30.6288 15.6865 30.8681 16.2744 30.9365 16.5137C31.2031 16.1787 31.4423 15.7993 31.6645 15.3926L31.6645 20.4341L32.5463 20.4341L32.5463 19.313L35.1816 19.313L35.1816 13.3213L32.5771 13.3213C32.9394 12.2856 33.2333 11.1509 33.4453 9.98877L35.5165 9.98877L35.5165 9.0249L30.7553 9.0249L30.7553 9.98877ZM41.9833 15.1123L41.9833 19.1865L39.9667 19.1865L39.9667 14.1211L42.6122 14.1211L42.6122 9.59912L41.621 9.59912L41.621 13.1812L39.9667 13.1812L39.9667 8.37891L38.9448 8.37891L38.9448 13.1812L37.1948 13.1812L37.1948 9.59912L36.2446 9.59912L36.2446 14.1211L38.9448 14.1211L38.9448 19.1865L36.9726 19.1865L36.9726 15.0986L35.937 15.0986L35.937 20.1948L41.9833 20.1948L41.9833 20.9229L42.9916 20.9229L42.9916 15.0986L41.9833 15.1123ZM53.953 19.2173L54.9476 19.2173L54.9476 16.8794L57.2855 16.8794L57.2855 15.9531L54.9476 15.9531L54.9476 14.063L56.9369 14.063L56.9369 13.1812L54.9476 13.1812L54.9476 11.5166L53.953 11.5166L53.953 13.1812L52.5106 13.1812C52.8763 12.4531 53.2386 11.5986 53.577 10.6895L57.1864 10.6895L57.1864 9.75293L53.8846 9.75293C54.0248 9.31885 54.1649 8.88477 54.2743 8.45068L53.2386 8.25244C53.1429 8.74463 53.0302 9.26074 52.89 9.75293L51.0682 9.75293L51.0682 10.6895L52.5824 10.6895C52.3158 11.5029 52.0492 12.1592 51.9364 12.4121C51.7006 12.9009 51.5023 13.2666 51.2938 13.3213C51.4203 13.5879 51.5604 14.0493 51.6151 14.2612C51.7416 14.1484 52.1483 14.063 52.6815 14.063L53.953 14.063L53.953 15.9531L51.0682 15.9531L51.0682 16.8794L53.953 16.8794L53.953 19.2173ZM50.7743 11.2637C50.5521 10.6074 50.077 9.59912 49.6293 8.82666L48.7748 9.1377C49.2089 9.89307 49.6703 10.9424 49.8788 11.6157L50.7743 11.2637ZM48.5082 10.8022L48.5082 9.89307L46.4506 9.89307C46.618 9.45898 46.7445 8.99756 46.8573 8.56348L45.9584 8.32422C45.6815 9.59912 45.1757 10.8569 44.5194 11.6978C44.6869 11.9097 44.9672 12.3984 45.0492 12.6069C45.4286 12.1045 45.7909 11.4893 46.0848 10.8022L48.5082 10.8022ZM47.1512 18.978L47.1512 16.0933L48.5902 16.0933L48.5902 15.1841L47.1512 15.1841L47.1512 13.2529L48.1732 13.2529L48.1732 12.3574L45.3431 12.3574L45.3431 13.2529L46.2113 13.2529L46.2113 15.1841L44.7552 15.1841L44.7552 16.0933L46.2113 16.0933L46.2113 18.8652C46.2113 19.5386 45.7909 20 45.5414 20.1948C45.7089 20.3486 45.9755 20.7007 46.0848 20.9092C46.2831 20.6597 46.618 20.3931 48.7167 18.937C48.621 18.7524 48.4808 18.3901 48.4091 18.1509L47.1512 18.978ZM50.6649 13.0854L48.703 13.0854L48.703 14.0356L49.7113 14.0356L49.7113 18.6841C49.2225 18.9233 48.6757 19.4121 48.1425 20L48.8158 20.9365C49.3353 20.1812 49.8925 19.4531 50.2719 19.4531C50.5521 19.4531 50.9452 19.7915 51.4203 20.1265C52.162 20.5879 53.0165 20.7827 54.1923 20.7827C55.0604 20.7827 56.5302 20.7417 57.2719 20.7007C57.2855 20.4067 57.412 19.9009 57.5111 19.6069C56.5848 19.7334 55.1288 19.7915 54.2196 19.7915C53.1293 19.7915 52.2885 19.665 51.5878 19.231C51.1947 18.978 50.9315 18.7388 50.6649 18.6294L50.6649 13.0854Z" fill="#000000" fill-opacity="1.000000" transform="matrix(1 0 0 1 474.178 203.211)"/><path d="M-60 33C-37.2 33 -24 14.5 0 14.5" fill="none" stroke="#9D62F5" stroke-opacity="1.000000" stroke-width="3" stroke-linejoin="round" stroke-linecap="round" stroke-dasharray="0 0" transform="matrix(1 0 0 1 474.178 203.211)"/><path d="M20.2827 20.1812C21.1953 20.1812 22.0635 19.8325 22.7334 19.2173L22.1865 18.3628C21.7114 18.7969 21.0962 19.1182 20.3955 19.1182C18.9976 19.1182 18.0439 17.9561 18.0439 16.2061C18.0439 14.4561 19.0522 13.2666 20.4229 13.2666C21.0415 13.2666 21.5029 13.5469 21.9507 13.9536L22.6069 13.0991C22.0635 12.6206 21.3765 12.2036 20.3818 12.2036C18.437 12.2036 16.7144 13.6733 16.7144 16.2061C16.7144 18.7251 18.2695 20.1812 20.2827 20.1812ZM24.4146 20L25.6895 20L25.6895 14.4834C26.4585 13.7144 26.9883 13.3213 27.7744 13.3213C28.7827 13.3213 29.2168 13.9229 29.2168 15.3516L29.2168 20L30.4883 20L30.4883 15.1841C30.4883 13.2393 29.7637 12.2036 28.1675 12.2036C27.1284 12.2036 26.3457 12.7744 25.645 13.4751L25.6895 11.9097L25.6895 8.85742L24.4146 8.85742L24.4146 20ZM34.6625 20.1812C35.599 20.1812 36.4535 19.6924 37.1816 19.0908L37.2226 19.0908L37.3354 20L38.3847 20L38.3847 15.3242C38.3847 13.4478 37.602 12.2036 35.7529 12.2036C34.5361 12.2036 33.4594 12.7471 32.7587 13.1948L33.2612 14.0767C33.8627 13.6733 34.6625 13.2666 35.5444 13.2666C36.7885 13.2666 37.1132 14.2031 37.1132 15.1841C33.8764 15.5464 32.4374 16.3735 32.4374 18.0244C32.4374 19.3984 33.3876 20.1812 34.6625 20.1812ZM35.0248 19.1592C34.2695 19.1592 33.6816 18.8105 33.6816 17.9424C33.6816 16.9614 34.5497 16.3325 37.1132 16.0249L37.1132 18.1509C36.3715 18.8105 35.7665 19.1592 35.0248 19.1592ZM40.8085 20L42.0834 20L42.0834 12.3984L40.8085 12.3984L40.8085 20ZM41.4511 10.8296C41.9569 10.8296 42.3329 10.481 42.3329 10.0024C42.3329 9.48633 41.9569 9.17871 41.4511 9.17871C40.9486 9.17871 40.5692 9.48633 40.5692 10.0024C40.5692 10.481 40.9486 10.8296 41.4511 10.8296ZM44.6585 20L45.9334 20L45.9334 14.4834C46.7024 13.7144 47.2322 13.3213 48.0183 13.3213C49.0266 13.3213 49.4607 13.9229 49.4607 15.3516L49.4607 20L50.7322 20L50.7322 15.1841C50.7322 13.2393 50.0076 12.2036 48.4114 12.2036C47.3723 12.2036 46.5896 12.7744 45.8616 13.4888L45.8206 13.4888L45.7078 12.3984L44.6585 12.3984L44.6585 20Z" fill="#000000" fill-opacity="1.000000" transform="matrix(1 0 0 1 345.555 110.711)"/><path d="M-60 97.75C-37.2 97.75 -24 14.5 0 14.5" fill="none" stroke="#3D7FFF" stroke-opacity="1.000000" stroke-width="3" stroke-linejoin="round" stroke-linecap="round" stroke-dasharray="0 0" transform="matrix(1 0 0 1 345.555 110.711)"/><path d="M17.2886 20L18.5635 20L18.5635 15.1123C19.0659 13.8135 19.8486 13.3623 20.481 13.3623C20.7886 13.3623 20.9697 13.3931 21.2227 13.4888L21.4585 12.3711C21.2227 12.2446 20.9834 12.2036 20.6484 12.2036C19.7939 12.2036 19.0249 12.8188 18.4917 13.7827L18.4507 13.7827L18.3379 12.3984L17.2886 12.3984L17.2886 20ZM24.932 20.1812C25.9813 20.1812 26.7367 19.6377 27.451 18.8105L27.4955 18.8105L27.5912 20L28.6576 20L28.6576 12.3984L27.3827 12.3984L27.3827 17.7886C26.6546 18.6978 26.1078 19.0771 25.325 19.0771C24.3167 19.0771 23.8963 18.4756 23.8963 17.0605L23.8963 12.3984L22.6214 12.3984L22.6214 17.2144C22.6214 19.1455 23.3358 20.1812 24.932 20.1812ZM32.5618 20.1812C32.8967 20.1812 33.1223 20.1401 33.3035 20.0684L33.1223 19.0908C32.9822 19.1182 32.9275 19.1182 32.8557 19.1182C32.6609 19.1182 32.4934 18.9644 32.4934 18.5713L32.4934 8.85742L31.2185 8.85742L31.2185 18.4893C31.2185 19.5659 31.6116 20.1812 32.5618 20.1812ZM38.2744 20.1812C39.3101 20.1812 40.1236 19.8325 40.7935 19.3984L40.332 18.5576C39.7715 18.937 39.1699 19.1592 38.4282 19.1592C36.9859 19.1592 35.9912 18.1235 35.9092 16.5L41.0327 16.5C41.0601 16.3188 41.0874 16.0522 41.0874 15.772C41.0874 13.6016 39.9971 12.2036 38.0625 12.2036C36.2988 12.2036 34.6343 13.7417 34.6343 16.2061C34.6343 18.7114 36.2578 20.1812 38.2744 20.1812ZM35.8955 15.5908C36.0493 14.0903 36.9995 13.2256 38.0796 13.2256C39.2691 13.2256 39.9663 14.0493 39.9663 15.5908L35.8955 15.5908Z" fill="#000000" fill-opacity="1.000000" transform="matrix(1 0 0 1 474.178 166.211)"/><path d="M-60 -41C-37.2 -41 -24 14.5 0 14.5" fill="none" stroke="#3D7FFF" stroke-opacity="1.000000" stroke-width="3" stroke-linejoin="round" stroke-linecap="round" stroke-dasharray="0 0" transform="matrix(1 0 0 1 474.178 166.211)"/><path d="M17.2886 20L18.5635 20L18.5635 15.1123C19.0659 13.8135 19.8486 13.3623 20.481 13.3623C20.7886 13.3623 20.9697 13.3931 21.2227 13.4888L21.4585 12.3711C21.2227 12.2446 20.9834 12.2036 20.6484 12.2036C19.7939 12.2036 19.0249 12.8188 18.4917 13.7827L18.4507 13.7827L18.3379 12.3984L17.2886 12.3984L17.2886 20ZM24.932 20.1812C25.9813 20.1812 26.7367 19.6377 27.451 18.8105L27.4955 18.8105L27.5912 20L28.6576 20L28.6576 12.3984L27.3827 12.3984L27.3827 17.7886C26.6546 18.6978 26.1078 19.0771 25.325 19.0771C24.3167 19.0771 23.8963 18.4756 23.8963 17.0605L23.8963 12.3984L22.6214 12.3984L22.6214 17.2144C22.6214 19.1455 23.3358 20.1812 24.932 20.1812ZM32.5618 20.1812C32.8967 20.1812 33.1223 20.1401 33.3035 20.0684L33.1223 19.0908C32.9822 19.1182 32.9275 19.1182 32.8557 19.1182C32.6609 19.1182 32.4934 18.9644 32.4934 18.5713L32.4934 8.85742L31.2185 8.85742L31.2185 18.4893C31.2185 19.5659 31.6116 20.1812 32.5618 20.1812ZM38.2744 20.1812C39.3101 20.1812 40.1236 19.8325 40.7935 19.3984L40.332 18.5576C39.7715 18.937 39.1699 19.1592 38.4282 19.1592C36.9859 19.1592 35.9912 18.1235 35.9092 16.5L41.0327 16.5C41.0601 16.3188 41.0874 16.0522 41.0874 15.772C41.0874 13.6016 39.9971 12.2036 38.0625 12.2036C36.2988 12.2036 34.6343 13.7417 34.6343 16.2061C34.6343 18.7114 36.2578 20.1812 38.2744 20.1812ZM35.8955 15.5908C36.0493 14.0903 36.9995 13.2256 38.0796 13.2256C39.2691 13.2256 39.9663 14.0493 39.9663 15.5908L35.8955 15.5908Z" fill="#000000" fill-opacity="1.000000" transform="matrix(1 0 0 1 474.178 129.211)"/><path d="M-60 -4C-37.2 -4 -24 14.5 0 14.5" fill="none" stroke="#3D7FFF" stroke-opacity="1.000000" stroke-width="3" stroke-linejoin="round" stroke-linecap="round" stroke-dasharray="0 0" transform="matrix(1 0 0 1 474.178 129.211)"/><path d="M17.2886 20L18.5635 20L18.5635 15.1123C19.0659 13.8135 19.8486 13.3623 20.481 13.3623C20.7886 13.3623 20.9697 13.3931 21.2227 13.4888L21.4585 12.3711C21.2227 12.2446 20.9834 12.2036 20.6484 12.2036C19.7939 12.2036 19.0249 12.8188 18.4917 13.7827L18.4507 13.7827L18.3379 12.3984L17.2886 12.3984L17.2886 20ZM24.932 20.1812C25.9813 20.1812 26.7367 19.6377 27.451 18.8105L27.4955 18.8105L27.5912 20L28.6576 20L28.6576 12.3984L27.3827 12.3984L27.3827 17.7886C26.6546 18.6978 26.1078 19.0771 25.325 19.0771C24.3167 19.0771 23.8963 18.4756 23.8963 17.0605L23.8963 12.3984L22.6214 12.3984L22.6214 17.2144C22.6214 19.1455 23.3358 20.1812 24.932 20.1812ZM32.5618 20.1812C32.8967 20.1812 33.1223 20.1401 33.3035 20.0684L33.1223 19.0908C32.9822 19.1182 32.9275 19.1182 32.8557 19.1182C32.6609 19.1182 32.4934 18.9644 32.4934 18.5713L32.4934 8.85742L31.2185 8.85742L31.2185 18.4893C31.2185 19.5659 31.6116 20.1812 32.5618 20.1812ZM38.2744 20.1812C39.3101 20.1812 40.1236 19.8325 40.7935 19.3984L40.332 18.5576C39.7715 18.937 39.1699 19.1592 38.4282 19.1592C36.9859 19.1592 35.9912 18.1235 35.9092 16.5L41.0327 16.5C41.0601 16.3188 41.0874 16.0522 41.0874 15.772C41.0874 13.6016 39.9971 12.2036 38.0625 12.2036C36.2988 12.2036 34.6343 13.7417 34.6343 16.2061C34.6343 18.7114 36.2578 20.1812 38.2744 20.1812ZM35.8955 15.5908C36.0493 14.0903 36.9995 13.2256 38.0796 13.2256C39.2691 13.2256 39.9663 14.0493 39.9663 15.5908L35.8955 15.5908Z" fill="#000000" fill-opacity="1.000000" transform="matrix(1 0 0 1 474.178 55.2106)"/><path d="M-60 70C-37.2 70 -24 14.5 0 14.5" fill="none" stroke="#19DEA6" stroke-opacity="1.000000" stroke-width="3" stroke-linejoin="round" stroke-linecap="round" stroke-dasharray="0 0" transform="matrix(1 0 0 1 474.178 55.2106)"/><path d="M17.9448 20.1812C18.4507 20.1812 18.8711 19.7915 18.8711 19.2173C18.8711 18.6431 18.4507 18.2227 17.9448 18.2227C17.4424 18.2227 17.022 18.6431 17.022 19.2173C17.022 19.7915 17.4424 20.1812 17.9448 20.1812ZM21.8368 20.1812C22.3427 20.1812 22.7631 19.7915 22.7631 19.2173C22.7631 18.6431 22.3427 18.2227 21.8368 18.2227C21.3344 18.2227 20.914 18.6431 20.914 19.2173C20.914 19.7915 21.3344 20.1812 21.8368 20.1812ZM25.7288 20.1812C26.2346 20.1812 26.6551 19.7915 26.6551 19.2173C26.6551 18.6431 26.2346 18.2227 25.7288 18.2227C25.2263 18.2227 24.8059 18.6431 24.8059 19.2173C24.8059 19.7915 25.2263 20.1812 25.7288 20.1812ZM29.6208 20.1812C30.1266 20.1812 30.547 19.7915 30.547 19.2173C30.547 18.6431 30.1266 18.2227 29.6208 18.2227C29.1183 18.2227 28.6979 18.6431 28.6979 19.2173C28.6979 19.7915 29.1183 20.1812 29.6208 20.1812Z" fill="#000000" fill-opacity="1.000000" transform="matrix(1 0 0 1 592.554 92.2106)"/><path d="M-60 -22.5C-37.2 -22.5 -24 14.5 -7.62939e-06 14.5L0 14.5" fill="none" stroke="#19DEA6" stroke-opacity="1.000000" stroke-width="3" stroke-linejoin="round" stroke-linecap="round" stroke-dasharray="0 0" transform="matrix(1 0 0 1 592.554 92.2106)"/><path d="M19.2744 20.1812C21.0688 20.1812 22.0464 19.1592 22.0464 17.9287C22.0464 16.4863 20.8296 16.0386 19.7256 15.6182C18.8711 15.2969 18.0439 15.0303 18.0439 14.3022C18.0439 13.7144 18.478 13.2085 19.4316 13.2085C20.1152 13.2085 20.6484 13.4888 21.1816 13.8818L21.7969 13.0547C21.1953 12.5933 20.3682 12.2036 19.4316 12.2036C17.7773 12.2036 16.8135 13.1538 16.8135 14.3569C16.8135 15.6455 18.0166 16.165 19.0796 16.5547C19.9204 16.8794 20.8159 17.228 20.8159 17.9971C20.8159 18.6567 20.3271 19.1865 19.3188 19.1865C18.4097 19.1865 17.7227 18.8242 17.063 18.291L16.4341 19.1318C17.1621 19.7334 18.1978 20.1812 19.2744 20.1812ZM26.9065 20.1812C27.9421 20.1812 28.7556 19.8325 29.4255 19.3984L28.9641 18.5576C28.4035 18.937 27.802 19.1592 27.0603 19.1592C25.6179 19.1592 24.6233 18.1235 24.5412 16.5L29.6648 16.5C29.6921 16.3188 29.7195 16.0522 29.7195 15.772C29.7195 13.6016 28.6291 12.2036 26.6945 12.2036C24.9309 12.2036 23.2663 13.7417 23.2663 16.2061C23.2663 18.7114 24.8899 20.1812 26.9065 20.1812ZM24.5276 15.5908C24.6814 14.0903 25.6316 13.2256 26.7116 13.2256C27.9011 13.2256 28.5984 14.0493 28.5984 15.5908L24.5276 15.5908ZM33.8351 20.1812C34.2965 20.1812 34.8024 20.041 35.2365 19.9009L34.9835 18.9507C34.7306 19.0464 34.382 19.1455 34.1154 19.1455C33.2335 19.1455 32.9396 18.6123 32.9396 17.6758L32.9396 13.4341L34.9972 13.4341L34.9972 12.3984L32.9396 12.3984L32.9396 10.269L31.8766 10.269L31.7228 12.3984L30.5333 12.4668L30.5333 13.4341L31.6647 13.4341L31.6647 17.6484C31.6647 19.1729 32.2115 20.1812 33.8351 20.1812Z" fill="#000000" fill-opacity="1.000000" transform="matrix(1 0 0 1 592.554 55.2106)"/><path d="M-60 14.5C-37.2 14.5 -24 14.5 0 14.5" fill="none" stroke="#19DEA6" stroke-opacity="1.000000" stroke-width="3" stroke-linejoin="round" stroke-linecap="round" stroke-dasharray="0 0" transform="matrix(1 0 0 1 592.554 55.2106)"/><path d="M17.2886 20L18.5635 20L18.5635 14.4834C19.2607 13.7007 19.9067 13.3213 20.481 13.3213C21.4448 13.3213 21.8926 13.9229 21.8926 15.3516L21.8926 20L23.1675 20L23.1675 14.4834C23.8818 13.7007 24.4971 13.3213 25.085 13.3213C26.0522 13.3213 26.5 13.9229 26.5 15.3516L26.5 20L27.7749 20L27.7749 15.1841C27.7749 13.2393 27.0332 12.2036 25.4644 12.2036C24.5415 12.2036 23.7417 12.8052 22.959 13.6597C22.6514 12.7607 22.019 12.2036 20.8569 12.2036C19.9478 12.2036 19.1514 12.7744 18.4917 13.5024L18.4507 13.5024L18.3379 12.3984L17.2886 12.3984L17.2886 20ZM32.0025 20.1812C32.939 20.1812 33.7935 19.6924 34.5216 19.0908L34.5626 19.0908L34.6754 20L35.7247 20L35.7247 15.3242C35.7247 13.4478 34.942 12.2036 33.0928 12.2036C31.8761 12.2036 30.7994 12.7471 30.0987 13.1948L30.6012 14.0767C31.2027 13.6733 32.0025 13.2666 32.8844 13.2666C34.1285 13.2666 34.4532 14.2031 34.4532 15.1841C31.2164 15.5464 29.7774 16.3735 29.7774 18.0244C29.7774 19.3984 30.7276 20.1812 32.0025 20.1812ZM32.3648 19.1592C31.6095 19.1592 31.0216 18.8105 31.0216 17.9424C31.0216 16.9614 31.8897 16.3325 34.4532 16.0249L34.4532 18.1509C33.7115 18.8105 33.1065 19.1592 32.3648 19.1592ZM38.1485 23.2061L39.4234 23.2061L39.4234 20.6289L39.3926 19.2993C40.0796 19.8599 40.8077 20.1812 41.4947 20.1812C43.2447 20.1812 44.7964 18.6841 44.7964 16.0796C44.7964 13.7417 43.7334 12.2036 41.7749 12.2036C40.8931 12.2036 40.0386 12.7061 39.3516 13.2666L39.3106 13.2666L39.1978 12.3984L38.1485 12.3984L38.1485 23.2061ZM41.2828 19.1182C40.7803 19.1182 40.107 18.9097 39.4234 18.3184L39.4234 14.3296C40.1651 13.6426 40.8213 13.2803 41.4673 13.2803C42.9063 13.2803 43.4668 14.415 43.4668 16.0933C43.4668 17.9834 42.544 19.1182 41.2828 19.1182Z" fill="#000000" fill-opacity="1.000000" transform="matrix(1 0 0 1 592.554 18.2106)"/><path d="M-60 51.5C-37.2 51.5 -24 14.5 0 14.5" fill="none" stroke="#19DEA6" stroke-opacity="1.000000" stroke-width="3" stroke-linejoin="round" stroke-linecap="round" stroke-dasharray="0 0" transform="matrix(1 0 0 1 592.554 18.2106)"/></svg>